<svg id="Layer_1" enable-background="new 0 0 512.131 512.131" height="512" viewBox="0 0 512.131 512.131" width="512" xmlns="http://www.w3.org/2000/svg"><path d="m203.326 245.177c-23.956 48.848-54.167 94.557-89.611 135.826-16.505 19.216-36.485 39.047-39.596 65.502-2.64 22.459 9.865 41.515 30.022 50.846 45.064 20.861 101.358-13.915 136.175-40.774 41.382-31.924 74.206-75.068 93.197-123.811z" fill="#f7ad56"/><path d="m203.326 245.177c-22.507 45.893-50.537 89.014-83.239 128.287 6.528 31.139 40.503 90.237 67.548 115.811.126.128.259.249.385.377 19.581-9.341 37.801-21.893 52.297-33.075 41.382-31.924 74.206-75.068 93.197-123.811z" fill="#f49634"/><path d="m428.098 302.557c54.456 119.919-119.047 199.054-162.845 68.588-37.023-110.281 112.86-178.661 162.845-68.588z" fill="#f3d37e"/><path d="m232.543 337.541c-111.171 73.533-217.26-85-93.897-149.728 104.277-54.713 195.94 82.233 93.897 149.728z" fill="#f3d37e"/><path d="m199.908 226.792c31.947-44.594 58.111-93.238 77.827-144.405 9.18-23.825 17.243-51.029 39.264-66.427 18.695-13.072 41.612-11.079 59.547 2.349 40.098 30.022 36.127 96.588 28.917 140.314-8.571 51.971-31.206 101.709-65.435 141.847z" fill="#fffdde"/><path d="m218.878 198.733c-6.078 9.513-12.392 18.878-18.969 28.059l140.119 73.678c22.471-26.35 39.921-56.846 51.699-89.387-.631-.161-73.862-17.846-172.849-12.35z" fill="#fdf3b4"/><path d="m195.152 214.338c62.741-11.512 151.668 31.753 180.425 87.744 28.995 56.453-13.985 157.498-73.915 179.963-101.638 38.099-255.052-240.453-106.51-267.707z" fill="#f9ef90"/><path d="m437.252 305.694c-14.195-35.57-36.665-51.064-54.133-57.801 17.663-34.864 28.386-69.839 32.577-106.066 7.402-63.983-3.835-106.211-34.354-129.095-21.389-16.036-47.537-16.989-68.241-2.49-23.672 16.576-32.598 45.42-42.393 71.151-3.387 8.753 10.446 14.565 13.988 5.414 8.654-22.655 16.069-49.617 37.008-64.278 15.213-10.654 34.616-9.809 50.64 2.205 25.881 19.406 35.188 57.144 28.452 115.369-4.92 42.531-19.358 83.36-44.07 124.53-15.724-15.769-36.104-29.755-59.279-40.356-24.674-11.288-50.208-17.679-73.667-18.74 19.44-29.464 34.312-56.81 48.98-89.946 3.799-8.583-9.743-15.043-13.717-6.072-10.66 24.084-21.428 45.031-34.065 66.032-28.08-11.718-59.645-9.631-89.663 6.119-40.724 21.368-62.396 55.563-59.462 93.815 2.482 32.353 22.185 61.846 50.732 77.851-21.845 27.908-55.848 55.338-60.24 92.701-2.952 25.105 10.284 47.677 34.543 58.906 10.354 4.794 21.568 7.186 33.619 7.186 27.641-.002 59.667-12.598 95.689-37.675 18.438 12.089 36.577 18.284 53.41 18.284 8.468 0 16.605-1.567 24.285-4.737 18.87-7.791 36.419-23.118 50.614-43.508 29.092-1.971 56.924-18.514 72.912-43.452 17.442-27.204 19.515-61.067 5.835-95.347zm-328.995 12.456c-10.217-13.05-16.25-28.2-17.447-43.812-1.442-18.804 3.326-54.122 51.475-79.385 25.122-13.18 51.319-15.377 74.666-6.457-3.455 5.423-6.746 10.761-11.151 17.314-28.136 2.247-56.123 14.384-70.221 39.986-15.743 28.589-11.301 64.373-2.01 94.259-9.668-5.489-18.262-12.9-25.312-21.905zm25.919 178.842c-9.366 0-18.465-1.714-26.987-5.658-18.173-8.413-28.115-25.098-25.947-43.543 2.503-21.282 22.48-44.539 38.131-61.979 7.439-8.289 14.36-17.169 21.207-26.012 18.525 45.642 42.044 73.332 76.742 105.284-24.88 16.69-55.224 31.91-83.146 31.908zm167.991-22.855c-30.555 12.617-63.955-10.552-81.144-25.486-25.255-21.943-48.39-53.875-63.473-87.606-13.266-29.667-24.31-67.25-12.755-99.255 10.912-30.223 42.357-41.456 72.307-41.456 43.476 0 88.619 18.991 121.123 47.442 38.911 34.059 45.421 79.91 28.469 127.737-13.31 37.56-38.037 67.687-64.527 78.624zm116.623-81.19c-11.387 17.763-29.881 30.464-50.094 34.962 25.302-46.781 33.955-107.847-1.491-151.641 3.08-5.006 6.008-10.008 8.798-15.009 20.854 7.393 37.204 24.653 47.317 49.993 11.836 29.663 10.228 58.676-4.53 81.695z"/></svg>