<svg id="Capa_1" enable-background="new 0 0 510 510" height="512" viewBox="0 0 510 510" width="512" xmlns="http://www.w3.org/2000/svg" xmlns:xlink="http://www.w3.org/1999/xlink"><linearGradient id="lg1"><stop offset="0" stop-color="#8a7889"/><stop offset="1" stop-color="#6e566e"/></linearGradient><linearGradient id="SVGID_1_" gradientUnits="userSpaceOnUse" x1="256.836" x2="331.418" xlink:href="#lg1" y1="302.597" y2="535.849"/><linearGradient id="lg2"><stop offset="0" stop-color="#6e566e" stop-opacity="0"/><stop offset=".2944" stop-color="#674d66" stop-opacity=".294"/><stop offset="1" stop-color="#593b56"/></linearGradient><linearGradient id="SVGID_2_" gradientUnits="userSpaceOnUse" x1="298.031" x2="272.25" xlink:href="#lg2" y1="415.406" y2="139.405"/><linearGradient id="lg3"><stop offset="0" stop-color="#f8f6fb"/><stop offset="1" stop-color="#efdcfb"/></linearGradient><linearGradient id="SVGID_3_" gradientUnits="userSpaceOnUse" x1="265.906" x2="289.137" xlink:href="#lg3" y1="172.784" y2="259.37"/><linearGradient id="SVGID_4_" gradientUnits="userSpaceOnUse" x1="78.806" x2="90.766" xlink:href="#lg1" y1="201.831" y2="246.406"/><linearGradient id="SVGID_5_" gradientUnits="userSpaceOnUse" x1="169.652" x2="182.913" xlink:href="#lg1" y1="196.179" y2="245.606"/><linearGradient id="SVGID_6_" gradientUnits="userSpaceOnUse" x1="272.03" x2="285.291" xlink:href="#lg1" y1="196.179" y2="245.606"/><linearGradient id="SVGID_7_" gradientUnits="userSpaceOnUse" x1="374.408" x2="387.669" xlink:href="#lg1" y1="196.179" y2="245.606"/><linearGradient id="SVGID_8_" gradientUnits="userSpaceOnUse" x1="466.929" x2="478.898" xlink:href="#lg1" y1="196.399" y2="241.01"/><linearGradient id="SVGID_9_" gradientTransform="matrix(.975 -.222 .222 .975 -76.417 -338.139)" gradientUnits="userSpaceOnUse" x1="222.961" x2="246.411" xlink:href="#lg3" y1="442.158" y2="529.562"/><linearGradient id="SVGID_10_" gradientTransform="matrix(.975 -.222 .222 .975 -76.417 -338.139)" gradientUnits="userSpaceOnUse" x1="35.758" x2="47.718" xlink:href="#lg1" y1="470.821" y2="515.396"/><linearGradient id="SVGID_11_" gradientTransform="matrix(.975 -.222 .222 .975 -76.417 -338.139)" gradientUnits="userSpaceOnUse" x1="126.604" x2="139.865" xlink:href="#lg1" y1="465.169" y2="514.596"/><linearGradient id="SVGID_12_" gradientTransform="matrix(.975 -.222 .222 .975 -76.417 -338.139)" gradientUnits="userSpaceOnUse" x1="228.982" x2="242.243" xlink:href="#lg1" y1="465.169" y2="514.596"/><linearGradient id="SVGID_13_" gradientTransform="matrix(.975 -.222 .222 .975 -76.417 -338.139)" gradientUnits="userSpaceOnUse" x1="331.36" x2="344.621" xlink:href="#lg1" y1="465.169" y2="514.596"/><linearGradient id="SVGID_14_" gradientTransform="matrix(.975 -.222 .222 .975 -76.417 -338.139)" gradientUnits="userSpaceOnUse" x1="423.881" x2="435.85" xlink:href="#lg1" y1="465.389" y2="510"/><linearGradient id="SVGID_15_" gradientUnits="userSpaceOnUse" x1="113.744" x2="26.154" xlink:href="#lg2" y1="248.991" y2="164.056"/><linearGradient id="SVGID_16_" gradientUnits="userSpaceOnUse" x1="37.167" x2="59.069" y1="163.333" y2="204.805"><stop offset="0" stop-color="#9b62cd"/><stop offset=".3003" stop-color="#985dcb"/><stop offset=".6716" stop-color="#8f4ec7"/><stop offset="1" stop-color="#833ac1"/></linearGradient><linearGradient id="SVGID_17_" gradientUnits="userSpaceOnUse" x1="41.472" x2="56.269" y1="171.486" y2="199.503"><stop offset="0" stop-color="#ffd945"/><stop offset=".3043" stop-color="#ffcd3e"/><stop offset=".8558" stop-color="#ffad2b"/><stop offset="1" stop-color="#ffa325"/></linearGradient><linearGradient id="SVGID_18_" gradientUnits="userSpaceOnUse" x1="275.216" x2="327.542" xlink:href="#lg3" y1="302.89" y2="526.604"/><linearGradient id="SVGID_19_" gradientUnits="userSpaceOnUse" x1="260.834" x2="313.161" xlink:href="#lg3" y1="306.254" y2="529.968"/><linearGradient id="SVGID_20_" gradientUnits="userSpaceOnUse" x1="246.453" x2="298.779" xlink:href="#lg3" y1="309.618" y2="533.332"/><g><path d="m497.732 507.51h-435.026c-6.775 0-12.268-5.492-12.268-12.268v-239.03c0-6.775 5.492-12.268 12.268-12.268h435.026c6.775 0 12.268 5.492 12.268 12.268v239.03c0 6.776-5.492 12.268-12.268 12.268z" fill="url(#SVGID_1_)"/><path d="m56.941 266.682 240.828 240.828h199.964c6.775 0 12.268-5.492 12.268-12.267v-254.03c0-6.775-5.492-12.268-12.268-12.268h-435.027c-6.775 0-9.633 35.675-5.765 37.737z" fill="url(#SVGID_2_)"/><g><path d="m497.739 184.144h-435.039c-6.772 0-12.261 5.49-12.261 12.261v59.454c0 6.772 5.49 12.261 12.261 12.261h20.129l26.639-8 21.722 8h54.066l22.116-8 26.203 8h54.037l24.097-7 24.288 7h53.988l21.169-9 27.145 9h54.039l17.662-40.713v-31.002c0-6.771-5.49-12.261-12.261-12.261z" fill="url(#SVGID_3_)"/><g><path d="m131.249 268.116h-48.47l-32.34-42.839v-28.87c0-6.768 5.494-12.263 12.263-12.263h5.13z" fill="url(#SVGID_4_)"/><path d="m233.626 268.116h-48.47l-63.406-83.972h48.459z" fill="url(#SVGID_5_)"/><path d="m336.004 268.116h-48.47l-63.406-83.972h48.458z" fill="url(#SVGID_6_)"/><path d="m438.381 268.116h-48.47l-63.406-83.972h48.459z" fill="url(#SVGID_7_)"/><path d="m510 227.382v28.484c0 6.768-5.494 12.251-12.263 12.251h-5.449l-63.406-83.972h48.459z" fill="url(#SVGID_8_)"/></g></g><g><path d="m467.492 2.798-424.193 96.538c-6.603 1.503-10.737 8.073-9.235 14.676l13.193 57.972c1.503 6.603 8.073 10.737 14.676 9.235l424.193-96.538c6.603-1.503 10.737-8.073 9.235-14.676l-13.193-57.972c-1.503-6.603-8.074-10.738-14.676-9.235z" fill="url(#SVGID_9_)"/><g><path d="m128.773 166.004-47.262 10.756-41.04-34.595-6.407-28.151c-1.502-6.6 2.636-13.176 9.236-14.678l5.002-1.138z" fill="url(#SVGID_10_)"/><path d="m228.598 143.285-47.262 10.756-80.459-67.808 47.251-10.754z" fill="url(#SVGID_11_)"/><path d="m328.423 120.567-47.262 10.756-80.459-67.809 47.251-10.753z" fill="url(#SVGID_12_)"/><path d="m428.248 97.849-47.262 10.755-80.459-67.808 47.251-10.753z" fill="url(#SVGID_13_)"/><path d="m489.042 42.237 6.321 27.774c1.502 6.599-2.639 13.165-9.238 14.667l-5.313 1.209-80.459-67.808 47.25-10.753z" fill="url(#SVGID_14_)"/></g></g><path d="m180.615 268.121c-37.268-38.149-79.93-83.977-79.93-83.977h-37.985c-6.772 0-12.261 5.489-12.261 12.261v42.497l29.219 29.219z" fill="url(#SVGID_15_)"/><circle cx="50.439" cy="188.464" fill="url(#SVGID_16_)" r="50.439"/><circle cx="50.439" cy="188.464" fill="url(#SVGID_17_)" r="34.075"/><g><path d="m412.387 333.594h-266.61c-4.48 0-8.111-3.632-8.111-8.111v-12.127c0-4.48 3.632-8.111 8.111-8.111h266.61c4.48 0 8.111 3.632 8.111 8.111v12.127c0 4.48-3.631 8.111-8.111 8.111z" fill="url(#SVGID_18_)"/><path d="m412.387 398.444h-266.61c-4.48 0-8.111-3.632-8.111-8.111v-12.127c0-4.48 3.632-8.111 8.111-8.111h266.61c4.48 0 8.111 3.632 8.111 8.111v12.127c0 4.479-3.631 8.111-8.111 8.111z" fill="url(#SVGID_19_)"/><path d="m412.387 463.294h-266.61c-4.48 0-8.111-3.632-8.111-8.111v-12.127c0-4.48 3.632-8.111 8.111-8.111h266.61c4.48 0 8.111 3.632 8.111 8.111v12.127c0 4.479-3.631 8.111-8.111 8.111z" fill="url(#SVGID_20_)"/></g></g></svg>