<svg id="Capa_1" enable-background="new 0 0 512 512" height="512" viewBox="0 0 512 512" width="512" xmlns="http://www.w3.org/2000/svg"><g><path d="m107.393 80.365c59.311 0 107.393 18.699 107.393 67.316 0 23.876-11.6 40.532-30.427 51.306-1.438.823-2.25 2.419-2.073 4.067 1.183 11.008 3.707 22.711 6.292 32.141 1.659 6.051-4.231 11.467-10.092 9.231-12.753-4.865-26.568-15.616-36.826-29.623-.897-1.225-2.398-1.84-3.903-1.646-9.629 1.246-19.817 1.84-30.364 1.84-59.312.001-107.393-18.698-107.393-67.316 0-48.617 48.081-67.316 107.393-67.316z" fill="#f4e972"/><path d="m125.042 214.383c-73.366-11.754-88.951-104.748-31.967-133.633-52.542 2.879-93.075 22.294-93.075 66.931 0 48.617 48.081 67.317 107.393 67.317 6.018 0 11.901-.217 17.649-.615z" fill="#eed076"/><path d="m248.222 178.367c-97.292 0-176.163 30.673-176.163 110.423 0 39.164 19.028 66.487 49.911 84.159 2.36 1.35 3.691 3.968 3.401 6.671-1.94 18.057-6.08 37.254-10.322 52.723-2.721 9.925 6.94 18.81 16.555 15.142 20.92-7.98 43.58-25.615 60.407-48.592 1.471-2.009 3.933-3.019 6.402-2.699 15.794 2.044 32.508 3.019 49.807 3.019 97.292 0 176.163-30.673 176.163-110.423s-78.869-110.423-176.161-110.423z" fill="#cde9fa"/><path d="m171.044 186.245c-58.607 13.555-98.985 45.487-98.985 102.545 0 39.164 19.028 66.488 49.911 84.159 2.36 1.35 3.691 3.968 3.401 6.672-1.94 18.057-6.08 37.254-10.322 52.723-2.721 9.925 6.94 18.81 16.555 15.142 20.92-7.98 43.58-25.616 60.407-48.592 1.471-2.009 3.933-3.019 6.402-2.7 15.794 2.044 32.508 3.019 49.807 3.019 9.92 0 19.644-.325 29.117-.982-144.863-21.713-137.998-162.913-106.293-211.986z" fill="#a2ddfd"/><g><g><path d="m205.985 329.29c0 14.349-14.607 25.982-32.626 25.982s-32.626-11.632-32.626-25.982 14.607-25.982 32.626-25.982 32.626 11.633 32.626 25.982z" fill="#fff"/><path d="m317.578 329.29c0 14.349 14.607 25.982 32.626 25.982s32.626-11.632 32.626-25.982-14.607-25.982-32.626-25.982c-18.019.001-32.626 11.633-32.626 25.982z" fill="#fff"/><path d="m288.086 309.328c0-16.257-11.777-17.784-26.305-17.784s-26.305 1.527-26.305 17.784c0 16.256 11.777 29.435 26.305 29.435 14.528-.001 26.305-13.179 26.305-29.435z" fill="#4e5660"/></g><g fill="#4e5660"><path d="m178.813 305.771c-4.142 0-7.5-3.358-7.5-7.5v-13.323c0-4.142 3.358-7.5 7.5-7.5s7.5 3.358 7.5 7.5v13.323c0 4.143-3.357 7.5-7.5 7.5z"/><path d="m344.749 305.771c-4.142 0-7.5-3.358-7.5-7.5v-13.323c0-4.142 3.358-7.5 7.5-7.5s7.5 3.358 7.5 7.5v13.323c0 4.143-3.357 7.5-7.5 7.5z"/></g></g><path d="m386.895 63.67c-69.094 0-125.105 21.783-125.105 78.419 0 27.813 13.513 47.217 35.445 59.767 1.676.959 2.622 2.818 2.415 4.738-1.378 12.824-4.318 26.457-7.33 37.442-1.933 7.048 4.928 13.358 11.757 10.753 14.856-5.667 30.949-18.191 42.899-34.508 1.045-1.427 2.793-2.144 4.547-1.917 11.217 1.451 23.086 2.144 35.372 2.144 69.093 0 125.105-21.783 125.105-78.419s-56.011-78.419-125.105-78.419z" fill="#a2ddfd"/><path d="m332.086 69.264c-41.621 9.626-70.296 32.303-70.296 72.824 0 27.813 13.513 47.217 35.445 59.767 1.676.959 2.622 2.818 2.415 4.738-1.378 12.824-4.318 26.457-7.33 37.442-1.933 7.048 4.928 13.358 11.757 10.753 14.856-5.667 30.949-18.191 42.899-34.508 1.045-1.427 2.793-2.144 4.547-1.917 11.217 1.451 23.086 2.144 35.372 2.144 7.045 0 13.95-.231 20.678-.697-102.878-15.42-98.003-115.696-75.487-150.546z" fill="#7acdf9"/><g fill="#4e5660"><g><path d="m432.286 129.024h-90.79c-4.142 0-7.5-3.358-7.5-7.5s3.358-7.5 7.5-7.5h90.79c4.142 0 7.5 3.358 7.5 7.5s-3.358 7.5-7.5 7.5z"/><path d="m417.444 170.153h-61.107c-4.142 0-7.5-3.358-7.5-7.5s3.358-7.5 7.5-7.5h61.107c4.142 0 7.5 3.358 7.5 7.5s-3.358 7.5-7.5 7.5z"/></g><path d="m141.014 155.182h-67.242c-4.142 0-7.5-3.358-7.5-7.5s3.358-7.5 7.5-7.5h67.242c4.142 0 7.5 3.358 7.5 7.5s-3.358 7.5-7.5 7.5z"/></g></g></svg>