<?xml version="1.0" encoding="iso-8859-1"?>
<!-- Generator: Adobe Illustrator 19.0.0, SVG Export Plug-In . SVG Version: 6.00 Build 0)  -->
<svg version="1.1" id="Capa_1" xmlns="http://www.w3.org/2000/svg" xmlns:xlink="http://www.w3.org/1999/xlink" x="0px" y="0px"
	 viewBox="0 0 510.947 510.947" style="enable-background:new 0 0 510.947 510.947;" xml:space="preserve">
<g>
	<g>
		<g>
			<path d="M181.99,165.843c2.063,2.063,4.792,3.125,7.542,3.125c2.104,0,4.219-0.615,6.052-1.885
				c12.354-8.51,26.156-14.208,41.021-16.948c5.063-0.927,8.74-5.344,8.74-10.49V10.697c0-2.99-1.25-5.844-3.458-7.865
				c-2.198-2.031-5.188-3.135-8.125-2.76C181.125,4.604,131.917,24.968,91.469,58.937c-2.281,1.917-3.667,4.719-3.792,7.708
				c-0.125,2.979,1,5.885,3.115,8L181.99,165.843z"/>
			<path d="M275.417,150.135c43.146,7.938,77.469,42.26,85.406,85.406c0.927,5.063,5.344,8.74,10.49,8.74h128.958
				c2.99,0,5.844-1.25,7.865-3.458c2.021-2.198,3.021-5.146,2.76-8.125C500.177,108.614,402.344,10.781,278.261,0.072
				c-2.906-0.271-5.927,0.74-8.125,2.76c-2.208,2.021-3.458,4.875-3.458,7.865v128.948
				C266.677,144.791,270.354,149.208,275.417,150.135z"/>
			<path d="M168.146,315.375c-12.302-17.865-18.802-38.76-18.802-60.427s6.5-42.563,18.802-60.427
				c2.927-4.24,2.396-9.958-1.24-13.594L75.709,89.729c-2.115-2.115-5.125-3.208-8-3.115c-2.99,0.125-5.781,1.51-7.708,3.792
				c-38.688,46.052-59.99,104.49-59.99,164.542S21.313,373.437,60,419.489c1.927,2.281,4.719,3.667,7.708,3.792
				c0.146,0.01,0.302,0.01,0.458,0.01c2.823,0,5.542-1.115,7.542-3.125l91.198-91.198
				C170.542,325.333,171.073,319.614,168.146,315.375z"/>
			<path d="M500.261,265.614H371.313c-5.146,0-9.563,3.677-10.49,8.74c-9.302,50.563-53.375,87.26-104.813,87.26
				c-21.667,0-42.563-6.5-60.427-18.802c-4.24-2.938-9.938-2.396-13.594,1.24L90.792,435.25c-2.115,2.115-3.24,5.021-3.115,8
				c0.125,2.99,1.51,5.781,3.792,7.708c46.052,38.688,104.49,59.99,164.542,59.99c131.615,0,243.573-102.677,254.875-233.75
				c0.26-2.979-0.75-5.927-2.76-8.125C506.104,266.864,503.25,265.614,500.261,265.614z"/>
		</g>
	</g>
</g>
<g>
</g>
<g>
</g>
<g>
</g>
<g>
</g>
<g>
</g>
<g>
</g>
<g>
</g>
<g>
</g>
<g>
</g>
<g>
</g>
<g>
</g>
<g>
</g>
<g>
</g>
<g>
</g>
<g>
</g>
</svg>
